<svg id="Capa_1" enable-background="new 0 0 56 57" height="512" viewBox="0 0 56 57" width="512" xmlns="http://www.w3.org/2000/svg"><g id="Page-1"><g id="_x30_19---Gloves-Touching"><path id="Shape_1_" d="m27.068.653c-1.648 4.395-3.881 6.928-6.638 7.529-4.73 1.023-9.674-3.84-9.724-3.89-.347-.338-.886-.378-1.28-.096s-.528.806-.32 1.243c1.172 2.283 1.305 4.96.366 7.349-.147.334-.1.721.123 1.011.222.289.584.435.945.379.361-.055.662-.303.788-.645.721-1.808.937-3.778.625-5.7 2.2 1.469 5.5 3.033 8.89 2.3 2.937-.633 5.333-2.871 7.157-6.621 1.824 3.75 4.22 5.985 7.158 6.622 3.389.734 6.69-.83 8.89-2.3-.312 1.922-.096 3.892.625 5.7.125.343.427.59.788.645s.723-.09.945-.379.269-.677.123-1.011c-.938-2.389-.803-5.066.37-7.349.208-.437.073-.961-.32-1.243-.394-.282-.933-.242-1.28.096-.05.049-4.995 4.906-9.719 3.886-2.757-.6-4.99-3.134-6.638-7.529-.173-.429-.599-.692-1.035-.65-.373.036-.699.29-.839.653z"/><path id="Shape_6_" d="m28.937 55.675c1.648-4.4 3.881-6.928 6.638-7.529 4.726-1.027 9.669 3.837 9.719 3.886.393.379 1.016.373 1.402-.013s.39-1.01.011-1.402c-.232-.236-5.762-5.682-11.549-4.431-2.938.637-5.334 2.872-7.158 6.622-1.824-3.75-4.22-5.985-7.158-6.622-5.786-1.253-11.317 4.194-11.549 4.427-.379.392-.374 1.016.011 1.402s1.009.392 1.402.013c.05-.05 4.991-4.909 9.719-3.886 2.757.6 4.99 3.133 6.638 7.529.145.447.572.734 1.016.699.391-.031.733-.306.858-.695z"/><path id="Shape_2_" d="m10.08 41.16c-.379-.392-.374-1.016.012-1.402s1.009-.391 1.402-.012l1.445 1.446c2.06-.795 3.976-1.92 5.675-3.33.304-.241.441-.635.352-1.012s-.387-.669-.766-.75c-1.607-.38-3.124-1.073-4.464-2.038-3.368-2.438-6.2-7.205-3.1-12.615.333-.583.711-1.14 1.13-1.665-.32-.789-.71-1.3-1.107-1.4-.506-.129-1.314.327-2.223 1.236-4.342 4.353-3.868 11.782-3.71 13.36l4.034 4.035c.26.251.364.623.273.973-.092.35-.365.623-.714.714-.35.092-.721-.013-.973-.273l-3.578-3.579-1.32 1.32 3.408 3.409c.26.251.364.623.273.973-.092.35-.365.623-.714.714-.35.092-.721-.013-.973-.273l-3.408-3.409-.66.66c-.361.366-.361.954 0 1.32l6.165 6.165c.175.176.413.274.661.273.247 0 .484-.098.659-.273l3.394-3.394z"/><path id="Shape_3_" d="m23.859 22.141c-1.201-1.259-2.644-2.263-4.243-2.949-.692-.279-1.429-.428-2.175-.44-1.979 0-3.651 1.223-5.069 3.7-2.439 4.254-.29 7.955 2.534 10 2.336 1.686 5.594 2.548 8.154 1.525.026-.011.051-.021.078-.03.601-.248 1.153-.603 1.628-1.047 2.244-2.1 2.8-4.508 1.642-7.172-.616-1.346-1.481-2.563-2.549-3.587zm-4.385.211c-.095.248-.285.447-.528.555s-.518.115-.765.019c-.233-.101-.482-.159-.735-.172-.308 0-.892.443-1.6 1.684-.179.31-.509.501-.867.501s-.688-.19-.868-.5c-.179-.31-.179-.691-.001-1.001 1.038-1.808 2.13-2.688 3.339-2.688.499.012.991.116 1.453.306.248.096.447.286.554.53s.115.518.018.766z"/><path id="Shape_4_" d="m38.661 18.752c-.746.012-1.483.161-2.175.44-1.57.671-2.989 1.65-4.173 2.88-1.097 1.042-1.986 2.282-2.619 3.656-1.154 2.664-.6 5.076 1.643 7.172.475.444 1.027.799 1.628 1.047.027.009.053.019.079.03 2.563 1.022 5.819.159 8.153-1.53 2.824-2.045 4.974-5.746 2.533-10-1.417-2.471-3.089-3.695-5.069-3.695z"/><path id="Shape_5_" d="m55.729 38.242-.66-.66-3.409 3.409c-.392.379-1.016.374-1.402-.012s-.391-1.009-.012-1.402l3.409-3.409-1.32-1.32-3.578 3.579c-.251.26-.623.364-.973.273-.35-.092-.623-.365-.714-.714-.092-.35.013-.721.273-.973l4.034-4.035c.157-1.581.633-9.007-3.711-13.351-.908-.909-1.715-1.36-2.224-1.236-.4.1-.787.607-1.107 1.4.418.525.796 1.082 1.13 1.665 3.1 5.41.272 10.177-3.1 12.615-1.339.961-2.854 1.651-4.459 2.029-.377.081-.673.372-.762.747s.045.768.345 1.009c1.699 1.411 3.615 2.536 5.675 3.331l1.445-1.446c.392-.379 1.016-.374 1.402.012s.391 1.009.012 1.402l-1.172 1.173 3.393 3.394c.365.363.955.363 1.32 0l6.165-6.165c.36-.365.36-.95 0-1.315z"/></g></g></svg>